<?xml version="1.0" encoding="UTF-8"?><svg id="Layer_20" xmlns="http://www.w3.org/2000/svg" viewBox="0 0 1983.28 894.1"><defs><style>.cls-1{fill:#fff;}</style></defs><polygon class="cls-1" points="99.96 170.29 176.9 170.29 176.9 460.53 311.9 297.85 418.53 297.85 247.09 484.15 418.53 669.78 314.59 669.78 176.9 509.79 176.9 669.78 99.96 669.78 99.96 170.29"/><rect class="cls-1" x="972.42" y="171.29" width="76.94" height="499.49"/><path class="cls-1" d="M1278.85,359.6c-57.38,0-112.74,43.19-112.74,123.51s55.36,126.88,112.74,126.88,112.74-45.24,112.74-125.56-54.68-124.87-112.74-124.87v.04ZM1262.66,292.79c62.76,0,105.99,29.69,128.93,60.06v-54h77.62v371.92h-77.62v-55.36c-23.63,31.74-68.18,61.43-130.26,61.43-96.51,0-174.13-78.99-174.13-193.74s77.62-190.36,175.5-190.36l-.04.04Z"/><path class="cls-1" d="M1716.27,359.6c-57.38,0-112.74,45.24-112.74,124.87s55.36,125.55,112.74,125.55,113.38-46.56,113.38-126.88-55.36-123.5-113.38-123.5v-.04ZM1733.14,292.79c98.56,0,174.81,75.61,174.81,190.36s-76.94,193.74-174.81,193.74c-61.43,0-105.31-27.68-129.61-60.07v54h-76.94V171.29h76.94v182.93c24.31-33.75,70.87-61.43,129.61-61.43Z"/><path class="cls-1" d="M843.31,532.67c-11.94-4.46-25.25,1.6-29.71,13.54l-5.17,13.84-58.42-23.69c4.77-16.57,7.33-34.1,7.33-52.24s-2.6-35.94-7.44-52.62l60.93-25.07,6.24,13.54c3.89,8.45,12.25,13.44,20.99,13.44,3.23,0,6.51-.68,9.64-2.12,11.59-5.34,16.65-19.05,11.32-30.64l-34.58-75.1c-5.33-11.58-19.05-16.65-30.63-11.32-11.59,5.34-16.65,19.05-11.32,30.64l6.04,13.11-60.67,24.96c-17.31-27.02-41.34-49.12-69.65-63.76l25.39-67.94,14.02,5.69c2.84,1.16,5.78,1.7,8.67,1.7,9.13,0,17.77-5.44,21.41-14.42,4.79-11.81-.9-25.28-12.72-30.07l-76.62-31.08c-11.81-4.79-25.28.9-30.07,12.72-4.8,11.82.9,25.28,12.71,30.08l13.19,5.35-26.5,70.93c-9.83-1.72-19.92-2.61-30.22-2.61-22.3,0-43.65,4.18-63.37,11.82l-31.24-67.84,12.32-5.07c11.8-4.85,17.42-18.35,12.57-30.14-4.85-11.8-18.35-17.42-30.14-12.57l-76.46,31.46c-11.79,4.86-17.42,18.35-12.57,30.15,3.67,8.92,12.28,14.31,21.37,14.31,2.92,0,5.9-.56,8.77-1.75l14.83-6.1,34.15,74.17c-42.62,33.77-70.1,86.72-70.1,146.15s28.12,113.59,71.58,147.31l-34.78,73.37-16.3-6.61c-11.82-4.79-25.28.9-30.08,12.72-4.79,11.82.9,25.28,12.72,30.08l76.62,31.07c2.84,1.16,5.78,1.7,8.67,1.7,9.12,0,17.77-5.44,21.41-14.41,4.79-11.82-.9-25.29-12.72-30.08l-10.86-4.41,31.92-67.33c19.25,7.22,40.03,11.17,61.69,11.17,9.51,0,18.85-.76,27.96-2.23l26.73,67.63-14.74,6.06c-11.79,4.85-17.42,18.35-12.56,30.14,3.67,8.92,12.28,14.31,21.36,14.31,2.93,0,5.9-.56,8.78-1.74l76.46-31.46c11.79-4.85,17.42-18.35,12.56-30.14-4.85-11.8-18.35-17.43-30.14-12.57l-12.44,5.12-25.2-63.76c29.27-14.69,54.11-37.3,71.83-65.09l61.69,25.02-5.11,13.67c-4.46,11.95,1.6,25.25,13.55,29.72,2.66.99,5.39,1.46,8.08,1.46,9.36,0,18.16-5.73,21.63-15.01l28.95-77.45c4.46-11.94-1.6-25.25-13.55-29.71ZM577.16,608.96c-67.18,0-121.79-56.05-121.79-124.98s54.61-124.98,121.79-124.98,121.79,56.05,121.79,124.98-54.61,124.98-121.79,124.98Z"/></svg>